<?xml version="1.0" encoding="UTF-8"?>
<svg xmlns="http://www.w3.org/2000/svg" viewBox="0 0 512 512" width="512" height="512"><g id="_21_Checkup" data-name="21 Checkup"><g id="Outline"><path d="M376,16H312V0H120V16H56A40.045,40.045,0,0,0,16,56V472a40.045,40.045,0,0,0,40,40H376a40.045,40.045,0,0,0,40-40V56A40.045,40.045,0,0,0,376,16ZM136,16H296V48a16.019,16.019,0,0,1-16,16H152a16.019,16.019,0,0,1-16-16ZM124.305,64A32.012,32.012,0,0,0,152,80H280A32.012,32.012,0,0,0,307.7,64H368V336H336v16h32v16H272v16h96v16H288v16h80v48.513l-224-.5V384H64V64ZM128,400v52.687L75.313,400Zm272,72a24.027,24.027,0,0,1-24,24H56a24.027,24.027,0,0,1-24-24V56A24.027,24.027,0,0,1,56,32h64V48H48V395.313l84.679,84.68L384,480.548V48H312V32h64a24.027,24.027,0,0,1,24,24Z"/><path d="M192,288h64V240h48V176H256V128H192v48H144v64h48Zm-32-64V192h48V144h32v48h48v32H240v48H208V224Z"/><rect x="304" y="336" width="16" height="16"/><path d="M473.881,80H454.119L432,150.779V400a32,32,0,0,0,64,0V150.779ZM464,102.021,477.119,144H450.881ZM480,400a16,16,0,0,1-32,0V384h32Zm0-32H448V160h32Z"/></g></g></svg>
