<svg id="Doctor_s_Clipboard" viewBox="0 0 64 64" xmlns="http://www.w3.org/2000/svg" data-name="Doctor&amp;apos;s Clipboard"><g fill="#011530"><path d="m10 44c-.55 0-1-.45-1-1v-30c0-2.76 2.24-5 5-5h3c.55 0 1 .45 1 1s-.45 1-1 1h-3c-1.65 0-3 1.35-3 3v30c0 .55-.45 1-1 1z"/><path d="m50 62h-36c-2.76 0-5-2.24-5-5v-10c0-.55.45-1 1-1s1 .45 1 1v10c0 1.65 1.35 3 3 3h36c1.65 0 3-1.35 3-3v-44c0-1.65-1.35-3-3-3h-3c-.55 0-1-.45-1-1s.45-1 1-1h3c2.76 0 5 2.24 5 5v44c0 2.76-2.24 5-5 5z"/><path d="m49 58h-34c-1.1 0-2-.9-2-2v-42c0-1.1.9-2 2-2h2c.55 0 1 .45 1 1s-.45 1-1 1h-2v42h34v-23c0-.55.45-1 1-1s1 .45 1 1v23c0 1.1-.9 2-2 2z"/><path d="m50 30c-.55 0-1-.45-1-1v-15h-2c-.55 0-1-.45-1-1s.45-1 1-1h2c1.1 0 2 .9 2 2v15c0 .55-.45 1-1 1z"/><path d="m32 32c-.16 0-.32-.04-.47-.12-.69-.37-6.78-3.74-6.78-7.97 0-2.16 1.96-3.92 4.37-3.92 1.29 0 2.28.64 2.88 1.18.6-.54 1.59-1.18 2.88-1.18 2.41 0 4.37 1.76 4.37 3.92 0 4.22-6.08 7.6-6.78 7.97-.15.08-.31.12-.47.12zm-2.88-10c-1.3 0-2.37.86-2.37 1.92 0 2.16 2.98 4.62 5.25 5.94 2.27-1.32 5.25-3.78 5.25-5.94 0-1.06-1.06-1.92-2.37-1.92-.66 0-1.21.36-1.56.67l-.66.59c-.38.34-.95.34-1.33 0l-.66-.59c-.34-.31-.89-.67-1.56-.67z"/></g><path d="m24 40h2.46l1.7 2.55c.2.3.52.47.89.44.36-.02.67-.23.83-.55l2.11-4.21 2.11 4.21c.16.32.48.53.83.55h.06c.33 0 .65-.17.83-.45l1.7-2.55h2.46c.55 0 1-.45 1-1s-.45-1-1-1h-3c-.33 0-.65.17-.83.45l-1.04 1.57-2.23-4.46c-.34-.68-1.45-.68-1.79 0l-2.23 4.46-1.04-1.57c-.19-.28-.5-.45-.83-.45h-3c-.55 0-1 .45-1 1s.45 1 1 1z" fill="#79cbca"/><path d="m21 47h22c.55 0 1-.45 1-1s-.45-1-1-1h-22c-.55 0-1 .45-1 1s.45 1 1 1z" fill="#79cbca"/><path d="m43 50h-22c-.55 0-1 .45-1 1s.45 1 1 1h22c.55 0 1-.45 1-1s-.45-1-1-1z" fill="#79cbca"/><path d="m43 16h-22c-.55 0-1-.45-1-1v-8c0-.55.45-1 1-1h6.1c.47-2.32 2.53-4 4.9-4s4.43 1.68 4.9 4 6.1 0 6.1 0c.55 0 1 .45 1 1v8c0 .55-.45 1-1 1zm-21-2h20v-6h-5.92c-.48 0-.88-.33-.98-.8l-.16-.8c-.28-1.39-1.52-2.4-2.94-2.4s-2.66 1.01-2.94 2.4l-.16.8c-.09.47-.5.8-.98.8h-5.92z" fill="#79cbca"/></svg>