<svg id="doctor_medical_healthcare_nurse_stethoscope_practitioner_therapist_specialist_surgeon" viewBox="0 0 48 48" xmlns="http://www.w3.org/2000/svg"><g><circle cx="17" cy="33" r="1"/><path d="m32 24.05v8.05c2.28.46 4 2.48 4 4.9v2c0 .55-.45 1-1 1h-1c-1.32 0-1.32-2 0-2v-1c0-1.65-1.35-3-3-3s-3 1.35-3 3v1c1.32 0 1.32 2 0 2h-1c-.55 0-1-.45-1-1v-2c0-2.41 1.72-4.43 4-4.9v-7.87c-5.66 1.47-10.08.49-12 0v5.96c1.16.41 2 1.51 2 2.82 0 1.65-1.35 3-3 3s-3-1.35-3-3c0-1.3.84-2.4 2-2.82v-6.13c-5.05.5-9 4.77-9 9.95v7.22c0 1.53 1.14 2.81 2.66 2.98 9.51 1.06 19.17 1.06 28.69 0 1.51-.17 2.65-1.45 2.65-2.98v-7.22c0-5.18-3.95-9.45-9-9.95z"/></g><path d="m24 3c-4.96 0-9 4.04-9 9s4.01 11 9 11 9-6.02 9-11-4.04-9-9-9z"/></svg>