<svg id="layer_1" enable-background="new 0 0 32 32" viewBox="0 0 32 32" xmlns="http://www.w3.org/2000/svg"><path d="m28.9500122 12.6400146c0-.9100342-.4299927-1.7900391-1.1600342-2.3400269l-9.9899902-7.6900024c-1.0599976-.8099976-2.539978-.8099976-3.5999756 0l-9.9899902 7.6900025c-.7300415.5499878-1.1600342 1.4299927-1.1600342 2.3400269v14.3999633c0 1.6300049 1.3300171 2.960022 2.960022 2.960022h19.9799805c1.6300049 0 2.960022-1.3300171 2.960022-2.960022v-14.3999634zm-5.710022 8-5.9400024 6.0599976c-.3499756.3599854-.8099976.5499878-1.2999878.5499878s-.9500122-.1900024-1.2999878-.5499878l-5.9400024-6.0599976c-2.1300049-2.1600342-2.1300049-5.6900024 0-7.8600464 1.0299683-1.0599976 2.4099731-1.6399536 3.8800049-1.6399536 1.2399902 0 2.4099731.4099731 3.3699951 1.1699829.9500122-.7399902 2.1199951-1.1500244 3.3499756-1.1500244h.0200195c1.4500122 0 2.8099976.5599976 3.8300171 1.5900269 2.1599731 2.1699829 2.1799926 5.7099609.0299682 7.8900146z"/><path d="m19.3699951 13.1599731c-.9500122 0-1.8399658.3800049-2.5100098 1.0599976l-.1499634.1500244c-.1799926.2000122-.4400024.2999878-.7100219.2999878s-.5300293-.0999756-.710022-.2999878l-.1900024-.1900024c-.6599731-.6699829-1.5299683-1.039978-2.4599609-1.039978s-1.7999878.3699951-2.460022 1.039978c-1.3699951 1.3999634-1.3699951 3.6699829 0 5.0599976l5.8200073 5.9299926 5.8200073-5.9299927c1.3800049-1.4000244 1.3699951-3.6799927-.0200195-5.0800171-.6499634-.6499633-1.5-1-2.4299927-1zm-.9199829 6.5499878h-1.4500122v1.4500122c0 .5499878-.4500122 1-1 1s-1-.4500122-1-1v-1.4500122h-1.4500122c-.5499878 0-1-.4499512-1-1 0-.5599976.4500122-1 1-1h1.4500122v-1.4599609c0-.5499878.4500122-1 1-1s1 .4500122 1 1v1.4599609h1.4500122c.5499878 0 1 .4400024 1 1 0 .5500489-.4500122 1-1 1z"/></svg>