<svg id="Layer_1" enable-background="new 0 0 500 500" viewBox="0 0 500 500" xmlns="http://www.w3.org/2000/svg"><path clip-rule="evenodd" d="m269.597 466.522c7.432 8.056 20.12 6.532 27.343-3.782l15.521-174.343s9.25 64.369 22.859 173.297c2.479 6.396 11.02 10.504 18.122 10.235 7.102-.268 13.737-4.724 16.874-11.332 0 0-1.801-81.042-6.282-216.066-18.036 2.266-43.49 1.556-62.916.183l1.379 13.13-30.335 24.32c-2.577 39.704 11.08 131.29 12.556 139.483l-18.256.425 3.832 42.541zm-84.691-226.552c-23.432 27.841-54.449 46.501-77.184 11.812 42.329-35.649 77.258-45.548 91.378-45.941 7.216.633 13.498 5.187 16.346 11.847 4.329 10.127-.574 21.78-10.608 25.895v223.237c0 3.619-3.087 6.553-6.894 6.553s-6.894-2.934-6.894-6.553v-222.774c-4.096-1.417-6.144-4.076-6.144-4.076zm36.38 9.194c9.195-9.246 12.203-23.012 7.784-35.226 15.877 6.775 36.005 18.524 58.946 37.844-20.118 30.696-45.026 19.628-66.73-2.618zm-25.899-167.466c18.783 0 34.01 15.227 34.01 34.01s-15.227 34.01-34.01 34.01-34.01-15.227-34.01-34.01 15.227-34.01 34.01-34.01zm-71.62 330.298h58.091v-148.465c-12.544 11.5-27.862 20.988-44.418 21.167-1.976 45.27-6.716 90.116-13.673 127.298zm90.263-150.539c11.979 11.685 27.324 22.571 44.422 23.003 1.799 46.465 6.305 88.978 13.519 127.537h-57.941zm-.548-65.653.003.001c19.494 5.636 51.186 22.334 72.083 36.83-7.931-50.768-24.724-75.493-50.38-74.167-27.625-1.489-52.503-1.489-74.637 0-25.495-1.318-42.238 23.088-50.23 73.211 14.871-11.349 31.005-21.438 47.986-28.944 11.852-5.24 27.308-10.58 40.403-10.945 4.715-.132 10.81 1.858 14.772 4.014zm-18.095-141.676c17.801 0 17.153 13.215 17.801 22.452-11.325-4.901-24.277-4.901-35.602 0 .649-9.236 0-22.452 17.801-22.452zm-17.942 371.986h-33.384l-3.262 36.203c2.174 5.955 7.637 10.083 13.96 10.549 6.322.466 12.331-2.817 15.355-8.389zm42.105 0 7.419 38.826c3.024 5.572 9.033 8.855 15.355 8.389 6.323-.466 11.785-4.594 13.96-10.549l-3.303-36.666zm162.209-263.828-.001-.001c-1.827-7.796-5.093-15.902-10.826-26.684-7.44-13.992-14.775-25.017-26.943-29.678-13.819-5.294-49.882-3.424-64.799-.267-39.337 8.324-41.45 24.748-45.827 38.909l1.889.099c16.356-.62 28.475 5.598 37.604 15.815 1.157 1.295 2.358 2.588 3.328 4.07 4.975 7.593 4.625 7.756 4.975 7.593 12.755-5.945 31.823 25.025 33.664 25.861 8.763 3.981 20.105.715 28.874-1.872l-4.049-35.882 18.94 44.017c-17.606 5.194-35.567 9.746-49.744 3.729-18.662-33.424-17.795-23.649-23.502-27.254 7.545 16.183 11.728 35.346 14.214 52.068 28.055 2.222 72.448 3.32 85.748-4.874 6.454-3.976 8.429-9.59 5.922-16.842zm-86.236-135.659c18.678 0 33.82 15.141 33.82 33.82 0 18.678-15.142 33.82-33.82 33.82s-33.82-15.141-33.82-33.82 15.142-33.82 33.82-33.82z" fill-rule="evenodd"/></svg>