<svg id="Layer_1" enable-background="new 0 0 133 133" viewBox="0 0 133 133" xmlns="http://www.w3.org/2000/svg"><g><path d="m16.779 3.052 74.857 43.207 28.819 16.649c2.704 1.627 2.726 5.514.042 7.162l-.127.085-103.528 59.771-.085.042c-1.056.592-2.218.655-3.232.359-1.69-.507-3.022-2.049-3.022-4.056v-119.543c0-2.007 1.331-3.549 3.022-4.056 1.035-.297 2.197-.233 3.254.38z" fill="#47bcff"/><path d="m16.779 3.052 74.857 43.207-18.804 20.241-59.307-63.829c1.035-.296 2.197-.232 3.254.381z" fill="#0bdf74"/><path d="m91.636 46.259 28.819 16.649c2.704 1.627 2.726 5.514.042 7.162l-.127.085-28.734 16.564-18.804-20.219z" fill="#fdba21"/><path d="m72.832 66.5 18.804 20.22-74.794 43.207-.085.042c-1.056.592-2.218.655-3.232.359z" fill="#fb434c"/></g></svg>