<?xml version="1.0" encoding="UTF-8" standalone="no"?>
<!-- Created with Inkscape (http://www.inkscape.org/) -->

<svg
   version="1.1"
   id="svg9"
   xml:space="preserve"
   width="682.66669"
   height="682.66669"
   viewBox="0 0 682.66669 682.66669"
   xmlns="http://www.w3.org/2000/svg"
   xmlns:svg="http://www.w3.org/2000/svg"><defs
     id="defs13"><clipPath
       clipPathUnits="userSpaceOnUse"
       id="clipPath23"><path
         d="M 0,512 H 512 V 0 H 0 Z"
         id="path21" /></clipPath></defs><g
     id="g15"
     transform="matrix(1.3333333,0,0,-1.3333333,0,682.66667)"><g
       id="g17"><g
         id="g19"
         clip-path="url(#clipPath23)"><g
           id="g25"
           transform="translate(416.3228,424.3389)"><path
             d="m 0,0 v 40.081 c 0,4.427 -3.589,8.016 -8.016,8.016 h -336.678 c -4.427,0 -8.016,-3.589 -8.016,-8.016 v -416.839 c 0,-4.427 3.589,-8.016 8.016,-8.016 H -8.016 c 4.427,0 8.016,3.589 8.016,8.016 v 344.697"
             style="fill:none;stroke:#000000;stroke-width:15;stroke-linecap:round;stroke-linejoin:round;stroke-miterlimit:10;stroke-dasharray:none;stroke-opacity:1"
             id="path27" /></g><g
           id="g29"
           transform="translate(95.6772,39.5669)"><path
             d="m 0,0 v -24.051 c 0,-4.427 3.589,-8.016 8.016,-8.016 h 336.678 c 4.427,0 8.016,3.589 8.016,8.016 v 416.839 c 0,4.427 -3.589,8.016 -8.016,8.016 h -24.048"
             style="fill:none;stroke:#000000;stroke-width:15;stroke-linecap:round;stroke-linejoin:round;stroke-miterlimit:10;stroke-dasharray:none;stroke-opacity:1"
             id="path31" /></g><g
           id="g33"
           transform="translate(143.7744,472.4348)"><path
             d="m 0,0 v 16.033 c 0,8.854 -7.178,16.032 -16.032,16.032 h -0.001 c -8.854,0 -16.032,-7.178 -16.032,-16.032 v -48.097 c 0,-8.854 7.178,-16.032 16.032,-16.032 h 0.001 c 8.854,0 16.032,7.178 16.032,16.032"
             style="fill:none;stroke:#000000;stroke-width:15;stroke-linecap:round;stroke-linejoin:round;stroke-miterlimit:10;stroke-dasharray:none;stroke-opacity:1"
             id="path35" /></g><g
           id="g37"
           transform="translate(296.0806,360.2097)"><path
             d="m 0,0 h -40.081 v 40.081 c 0,4.427 -3.588,8.016 -8.016,8.016 h -16.032 c -4.427,0 -8.016,-3.589 -8.016,-8.016 V 0 h -40.081 c -4.427,0 -8.016,-3.589 -8.016,-8.016 v -16.032 c 0,-4.428 3.589,-8.016 8.016,-8.016 h 40.081 v -40.081 c 0,-4.427 3.589,-8.016 8.016,-8.016 h 16.032 c 4.428,0 8.016,3.589 8.016,8.016 v 40.081 H 0 c 4.427,0 8.016,3.588 8.016,8.016 V -8.016 C 8.016,-3.589 4.427,0 0,0 Z"
             style="fill:none;stroke:#000000;stroke-width:15;stroke-linecap:round;stroke-linejoin:round;stroke-miterlimit:10;stroke-dasharray:none;stroke-opacity:1"
             id="path39" /></g><g
           id="g41"
           transform="translate(191.8711,215.9194)"><path
             d="M 0,0 H 160.322"
             style="fill:none;stroke:#000000;stroke-width:15;stroke-linecap:round;stroke-linejoin:round;stroke-miterlimit:10;stroke-dasharray:none;stroke-opacity:1"
             id="path43" /></g><g
           id="g45"
           transform="translate(151.7905,215.9194)"><path
             d="M 0,0 H -24.049"
             style="fill:none;stroke:#000000;stroke-width:15;stroke-linecap:round;stroke-linejoin:round;stroke-miterlimit:10;stroke-dasharray:none;stroke-opacity:1"
             id="path47" /></g><g
           id="g49"
           transform="translate(191.8711,167.8225)"><path
             d="M 0,0 H 160.322"
             style="fill:none;stroke:#000000;stroke-width:15;stroke-linecap:round;stroke-linejoin:round;stroke-miterlimit:10;stroke-dasharray:none;stroke-opacity:1"
             id="path51" /></g><g
           id="g53"
           transform="translate(191.8711,119.7258)"><path
             d="M 0,0 H 160.322"
             style="fill:none;stroke:#000000;stroke-width:15;stroke-linecap:round;stroke-linejoin:round;stroke-miterlimit:10;stroke-dasharray:none;stroke-opacity:1"
             id="path55" /></g><g
           id="g57"
           transform="translate(151.7905,167.8225)"><path
             d="M 0,0 H -24.049"
             style="fill:none;stroke:#000000;stroke-width:15;stroke-linecap:round;stroke-linejoin:round;stroke-miterlimit:10;stroke-dasharray:none;stroke-opacity:1"
             id="path59" /></g><g
           id="g61"
           transform="translate(151.7905,119.7258)"><path
             d="M 0,0 H -24.049"
             style="fill:none;stroke:#000000;stroke-width:15;stroke-linecap:round;stroke-linejoin:round;stroke-miterlimit:10;stroke-dasharray:none;stroke-opacity:1"
             id="path63" /></g></g></g></g></svg>
