<?xml version="1.0" encoding="UTF-8" standalone="no"?>
<!-- Created with Inkscape (http://www.inkscape.org/) -->

<svg
  version="1.1"
  id="svg516"
  xml:space="preserve"
  width="682.66669"
  height="682.66669"
  viewBox="0 0 682.66669 682.66669"
  xmlns="http://www.w3.org/2000/svg"
  xmlns:svg="http://www.w3.org/2000/svg"><defs
     id="defs520"><clipPath
       clipPathUnits="userSpaceOnUse"
       id="clipPath534"><path
         d="M 0,512 H 512 V 0 H 0 Z"
         id="path532" /></clipPath></defs><g
     id="g522"
     transform="matrix(1.3333333,0,0,-1.3333333,0,682.66667)"><g
       id="g524"
       transform="translate(361.9167,267.0001)"><path
         d="M 0,0 V 147"
         style="fill:#ffffff;stroke:#176B87;stroke-width:20;stroke-linecap:round;stroke-linejoin:round;stroke-miterlimit:10;stroke-dasharray:none;stroke-opacity:1"
         id="path526" /></g><g
       id="g528"><g
         id="g530"
         clip-path="url(#clipPath534)"><g
           id="g536"
           transform="translate(10,231.001)"><path
             d="m 0,0 v -161.001 c 0,-11.046 8.954,-20 20,-20 h 50 233.5"
             style="fill:#ffffff;stroke:#176B87;stroke-width:20;stroke-linecap:round;stroke-linejoin:round;stroke-miterlimit:10;stroke-dasharray:none;stroke-opacity:1"
             id="path538" /></g><g
           id="g540"
           transform="translate(273.9167,502)"><path
             d="m 0,0 h -243.917 c -11.045,0 -20,-8.954 -20,-20 v -161"
             style="fill:#ffffff;stroke:#176B87;stroke-width:20;stroke-linecap:round;stroke-linejoin:round;stroke-miterlimit:10;stroke-dasharray:none;stroke-opacity:1"
             id="path542" /></g><g
           id="g544"
           transform="translate(361.9167,414)"><path
             d="M 0,0 -88,88 V 18.624 C -88,8.338 -79.662,0 -69.376,0 Z"
             style="fill:#ffffff;stroke:#176B87;stroke-width:20;stroke-linecap:round;stroke-linejoin:round;stroke-miterlimit:10;stroke-dasharray:none;stroke-opacity:1"
             id="path546" /></g><g
           id="g548"
           transform="translate(273.9167,228.0198)"><path
             d="M 0,0 H -202.907"
             style="fill:#ffffff;stroke:#176B87;stroke-width:20;stroke-linecap:round;stroke-linejoin:round;stroke-miterlimit:10;stroke-dasharray:none;stroke-opacity:1"
             id="path550" /></g><g
           id="g552"
           transform="translate(273.9167,172)"><path
             d="M 0,0 H -202.907"
             style="fill:#ffffff;stroke:#176B87;stroke-width:20;stroke-linecap:round;stroke-linejoin:round;stroke-miterlimit:10;stroke-dasharray:none;stroke-opacity:1"
             id="path554" /></g><g
           id="g556"
           transform="translate(191.0099,115.9802)"><path
             d="M 0,0 H -120"
             style="fill:#ffffff;stroke:#176B87;stroke-width:20;stroke-linecap:round;stroke-linejoin:round;stroke-miterlimit:10;stroke-dasharray:none;stroke-opacity:1"
             id="path558" /></g><g
           id="g560"
           transform="translate(389.9957,274)"><path
             d="m 0,0 112.004,-34.968 v -93.531 c 0,-66.184 -46.998,-123.044 -112,-135.501 v 0 0 c -65.001,12.457 -112,69.317 -112,135.501 v 93.531 L 0.009,0"
             style="fill:#ffffff;stroke:#176B87;stroke-width:20;stroke-linecap:round;stroke-linejoin:round;stroke-miterlimit:10;stroke-dasharray:none;stroke-opacity:1"
             id="path562" /></g><g
           id="g564"
           transform="translate(318,209.6157)"><path
             d="m 0,0 v -64.114 c 0,-44.326 29.847,-82.89 72,-94.465 42.153,11.575 72,50.139 72,94.465 V 0 L 72,22.479 Z"
             style="fill:#ffffff;stroke:#176B87;stroke-width:20;stroke-linecap:round;stroke-linejoin:round;stroke-miterlimit:10;stroke-dasharray:none;stroke-opacity:1"
             id="path566" /></g><g
           id="g568"
           transform="translate(358,146.5821)"><path
             d="M 0,0 23.04,-23.04 64,17.92"
             style="fill:#ffffff;stroke:#176B87;stroke-width:20;stroke-linecap:round;stroke-linejoin:round;stroke-miterlimit:10;stroke-dasharray:none;stroke-opacity:1"
             id="path570" /></g><g
           id="g572"
           transform="translate(255.0099,364.0099)"><path
             d="M 0,0 H -40 V 40 H -88 V 0 h -40 v -48 h 40 v -40 h 48 v 40 H 0 Z"
             style="fill:#ffffff;stroke:#176B87;stroke-width:20;stroke-linecap:round;stroke-linejoin:round;stroke-miterlimit:10;stroke-dasharray:none;stroke-opacity:1"
             id="path574" /></g><g
           id="g576"
           transform="translate(10,276)"><path
             d="M 0,0 V 0"
             style="fill:#ffffff;stroke:#176B87;stroke-width:20;stroke-linecap:round;stroke-linejoin:round;stroke-miterlimit:10;stroke-dasharray:none;stroke-opacity:1"
             id="path578" /></g></g></g></g></svg>