<?xml version="1.0" encoding="UTF-8" standalone="no"?>
<!-- Created with Inkscape (http://www.inkscape.org/) -->

<svg
  version="1.1"
  id="svg57"
  xml:space="preserve"
  width="682.66669"
  height="682.66669"
  viewBox="0 0 682.66669 682.66669"
  xmlns="http://www.w3.org/2000/svg"
  xmlns:svg="http://www.w3.org/2000/svg"><defs
     id="defs61"><clipPath
       clipPathUnits="userSpaceOnUse"
       id="clipPath71"><path
         d="M 0,512 H 512 V 0 H 0 Z"
         id="path69" /></clipPath></defs><g
     id="g63"
     transform="matrix(1.3333333,0,0,-1.3333333,0,682.66667)"><g
       id="g65"><g
         id="g67"
         clip-path="url(#clipPath71)"><g
           id="g73"
           transform="translate(269.8149,86.3228)"><path
             d="m 0,0 c 16.506,13.642 34.427,23.367 57.173,25.928 8.31,0.936 17.972,0.906 25.998,3.264 11.475,3.371 20.651,10.415 24.988,21.749 4.068,10.63 2.608,23.37 5.334,34.495 1.894,7.731 5.801,17.29 11.757,22.723 5.491,5.01 11.284,7.728 14.1,15.337 2.909,7.861 0.297,13.743 -0.533,21.268 -0.927,8.416 3.402,17.011 3.741,25.446 0.469,11.678 -5.751,22.452 -11.768,32.472 -5.752,9.579 -11.505,19.159 -17.257,28.739 -2.267,3.775 -4.573,7.649 -5.412,11.976 -1.937,9.988 6.691,15.824 15.34,17.764 5.515,1.236 11.053,1.481 15.883,4.701 5.185,3.458 9.665,9.537 14.433,13.657 13.798,11.92 34.252,32.779 9.206,45.829 -8.353,4.351 -19.03,5.739 -27.607,8.405 -6.895,2.143 -7.008,8.842 -1.97,12.519 14.196,10.36 9.509,22.164 -2.633,30.438 -2.395,1.632 -3.985,3.886 -5.294,6.346 -5.905,11.092 -10.03,23.197 -24.415,25.624 -11.567,1.95 -24.257,-1.71 -31.796,-11.02 -5.732,-7.079 -10.485,-19.268 -21.94,-18.194 -7.772,0.729 -9.877,8.595 -9.714,15.327 0.227,9.349 2.028,22.295 -10.61,23.318 -11.92,0.963 -19.116,-8.698 -25.338,-17.337 -7.435,-10.322 -12.395,-17.393 -24.682,-23.003 -15.079,-6.884 -32.399,-7.243 -47.371,-14.646 -10.284,-5.085 -23.59,-18.688 -14.822,-30.947 5.551,-7.763 18.894,-3.312 26.691,-6.766 10.274,-4.552 2.104,-13.859 -2.469,-19.448 -11.769,-14.385 -8.82,-42.595 8.832,-51.947 7.833,-4.15 18.087,-4.813 21.985,-13.458 3.994,-8.859 -0.097,-18.279 -7.394,-24.08 -6.936,-5.515 -16.687,-4.86 -24.305,-2.059 -11.02,4.052 -15.092,14.002 -18.214,24.384 -1.61,5.352 -3.468,10.667 -5.783,15.751"
             style="fill:none;stroke:currentColor;stroke-width:15;stroke-linecap:round;stroke-linejoin:round;stroke-miterlimit:10;stroke-dasharray:none;stroke-opacity:1"
             id="path75" /></g><g
           id="g77"
           transform="translate(164.4785,369.8306)"><path
             d="m 0,0 c -5.229,5.608 -11.423,9.968 -19.027,10.22 -9.542,0.316 -19.23,-3.342 -27.646,-7.517 -14.008,-6.952 -27.066,-16.317 -31.342,-32.18 -5.104,-18.937 10.149,-18.791 16.831,-32.564 4.906,-10.112 -7.301,-19.537 -11.867,-27.208 -4.901,-8.236 -2.906,-20.725 4.711,-27.038 5.213,-4.32 9.815,-5.497 16.224,-3.722 10.761,2.98 18.647,1.055 29.134,0.51 6.822,-0.354 13.7,0.329 20.293,2.133 17.195,4.708 19.692,-12.972 7.991,-22.068 -4.452,-3.46 -9.732,-5.672 -14.505,-8.674 -13.043,-8.205 -13.726,-26.096 -27.012,-35.382 -4.141,-2.895 -8.95,-4.654 -13.698,-6.382 -5.384,-1.959 -10.769,-3.918 -16.153,-5.878 -2.614,-0.951 -5.28,-1.931 -7.451,-3.67 -8.853,-7.096 -1.221,-17.573 7.787,-17.927 9.321,-0.365 17.442,4.546 26.304,6.481 12.606,2.751 25.707,-2.373 20.424,-17.275 -2.251,-6.351 -10.538,-9.224 -16.434,-10.894 -13.939,-3.949 -29.124,-1.95 -42.856,-6.524 -6.185,-2.06 -12.893,-5.321 -16.521,-10.996 -4.957,-7.753 -1.136,-11.34 4.768,-16.482 11.944,-10.402 -8.65,-27.46 9.191,-37.968 9.901,-5.831 20.344,-1.256 29.777,3.102 6.504,3.004 13.547,8.678 21.095,7.202 7.277,-1.423 10.865,-7.156 8.701,-14.068 -5.138,-16.412 -27.562,-14.107 -37.897,-25.225 -7.877,-8.472 -7.012,-19.195 5.394,-21.877 6.543,-1.415 13.311,0.664 19.527,3.151 6.215,2.486 12.422,5.445 19.102,5.881 13.818,0.902 27.333,0.764 40.39,5.557 12.786,4.694 24.657,11.639 35.24,20.192 7.285,5.887 13.57,12.728 19.905,19.542"
             style="fill:none;stroke:currentColor;stroke-width:15;stroke-linecap:round;stroke-linejoin:round;stroke-miterlimit:10;stroke-dasharray:none;stroke-opacity:1"
             id="path79" /></g></g></g></g></svg>