<?xml version="1.0" encoding="UTF-8" standalone="no"?>
<!-- Created with Inkscape (http://www.inkscape.org/) -->

<svg
  version="1.1"
  id="svg483"
  xml:space="preserve"
  width="682.66669"
  height="682.66669"
  viewBox="0 0 682.66669 682.66669"
  xmlns="http://www.w3.org/2000/svg"
  xmlns:svg="http://www.w3.org/2000/svg"><defs
     id="defs487"><clipPath
       clipPathUnits="userSpaceOnUse"
       id="clipPath497"><path
         d="M 0,512 H 512 V 0 H 0 Z"
         id="path495" /></clipPath></defs><g
     id="g489"
     transform="matrix(1.3333333,0,0,-1.3333333,0,682.66667)"><g
       id="g491"><g
         id="g493"
         clip-path="url(#clipPath497)"><g
           id="g499"
           transform="translate(75,369.5)"><path
             d="m 0,0 v 105 c 0,16.57 13.43,30 30,30 h 302 c 16.57,0 30,-13.43 30,-30 v -319.38"
             style="fill:none;stroke:currentColor;stroke-width:15;stroke-linecap:round;stroke-linejoin:round;stroke-miterlimit:10;stroke-dasharray:none;stroke-opacity:1"
             id="path501" /></g><g
           id="g503"
           transform="translate(437,120.12)"><path
             d="m 0,0 v -82.62 c 0,-16.57 -13.43,-30 -30,-30 h -302 c -16.57,0 -30,13.43 -30,30 v 297"
             style="fill:none;stroke:currentColor;stroke-width:15;stroke-linecap:round;stroke-linejoin:round;stroke-miterlimit:10;stroke-dasharray:none;stroke-opacity:1"
             id="path505" /></g><g
           id="g507"
           transform="translate(140.5253,76.0185)"><path
             d="M 0,0 19.444,-18.519 50,12.963"
             style="fill:none;stroke:currentColor;stroke-width:15;stroke-linecap:round;stroke-linejoin:round;stroke-miterlimit:10;stroke-dasharray:none;stroke-opacity:1"
             id="path509" /></g><g
           id="g511"
           transform="translate(140.5253,140.3981)"><path
             d="M 0,0 19.444,-18.519 50,12.963"
             style="fill:none;stroke:currentColor;stroke-width:15;stroke-linecap:round;stroke-linejoin:round;stroke-miterlimit:10;stroke-dasharray:none;stroke-opacity:1"
             id="path513" /></g><g
           id="g515"
           transform="translate(140.5253,204.7778)"><path
             d="M 0,0 19.444,-18.519 50,12.963"
             style="fill:none;stroke:currentColor;stroke-width:15;stroke-linecap:round;stroke-linejoin:round;stroke-miterlimit:10;stroke-dasharray:none;stroke-opacity:1"
             id="path517" /></g><g
           id="g519"
           transform="translate(229.5253,73.2407)"><path
             d="M 0,0 H 140"
             style="fill:none;stroke:currentColor;stroke-width:15;stroke-linecap:round;stroke-linejoin:round;stroke-miterlimit:10;stroke-dasharray:none;stroke-opacity:1"
             id="path521" /></g><g
           id="g523"
           transform="translate(229.5253,137.6204)"><path
             d="M 0,0 H 140"
             style="fill:none;stroke:currentColor;stroke-width:15;stroke-linecap:round;stroke-linejoin:round;stroke-miterlimit:10;stroke-dasharray:none;stroke-opacity:1"
             id="path525" /></g><g
           id="g527"
           transform="translate(231.4747,202)"><path
             d="M 0,0 H 140"
             style="fill:none;stroke:currentColor;stroke-width:15;stroke-linecap:round;stroke-linejoin:round;stroke-miterlimit:10;stroke-dasharray:none;stroke-opacity:1"
             id="path529" /></g><g
           id="g531"
           transform="translate(256,454.5)"><path
             d="m 0,0 c -37.279,0 -67.5,-30.221 -67.5,-67.5 0,-14.831 3.147,-29.493 9.233,-43.018 l 34.467,-76.593 c 4.215,-9.366 13.53,-15.389 23.8,-15.389 v 0 c 10.27,0 19.585,6.023 23.8,15.389 l 34.467,76.593 C 64.353,-96.993 67.5,-82.331 67.5,-67.5 67.5,-30.221 37.279,0 0,0 Z"
             style="fill:none;stroke:currentColor;stroke-width:15;stroke-linecap:round;stroke-linejoin:round;stroke-miterlimit:10;stroke-dasharray:none;stroke-opacity:1"
             id="path533" /></g><g
           id="g535"
           transform="translate(218.5,387)"><path
             d="M 0,0 C 0,20.711 16.789,37.5 37.5,37.5 58.211,37.5 75,20.711 75,0 75,-20.711 58.211,-37.5 37.5,-37.5 16.789,-37.5 0,-20.711 0,0 Z"
             style="fill:none;stroke:currentColor;stroke-width:15;stroke-linecap:butt;stroke-linejoin:miter;stroke-miterlimit:10;stroke-dasharray:none;stroke-opacity:1"
             id="path537" /></g></g></g></g></svg>