<svg id="Layer_1" viewBox="0 0 64 64" xmlns="http://www.w3.org/2000/svg" data-name="Layer 1">
    <path
        d="m24.365 18.655h3.842v3.845a1 1 0 0 0 1 1h5.586a1 1 0 0 0 1-1v-3.845h3.842a1 1 0 0 0 1-1v-5.585a1 1 0 0 0 -1-1h-3.842v-3.843a1 1 0 0 0 -1-1h-5.586a1 1 0 0 0 -1 1v3.843h-3.842a1 1 0 0 0 -1 1v5.585a1 1 0 0 0 1 1zm1-5.585h3.842a1 1 0 0 0 1-1v-3.843h3.586v3.843a1 1 0 0 0 1 1h3.842v3.585h-3.842a1 1 0 0 0 -1 1v3.845h-3.586v-3.845a1 1 0 0 0 -1-1h-3.842z" />
    <path
        d="m56.057 2h-48.114a1 1 0 0 0 -1 1v47.569c0 .021.011.04.013.061a.959.959 0 0 0 .051.26c.011.031.019.062.033.093a1 1 0 0 0 .2.293l10.427 10.431a1.005 1.005 0 0 0 .707.293h37.683a1 1 0 0 0 1-1v-6.376-.014-.015-51.595a1 1 0 0 0 -1-1zm-1 2v49.61h-35.683v-3.041a1 1 0 0 0 -1-1h-9.431v-45.569zm-44.7 47.569h7.017v3.022.019s0 .012 0 .019v3.957l-3.508-3.509zm9.017 8.431v-4.39h35.683v4.39z" />
    <path d="m14.517 32a1 1 0 0 0 1 1h32.966a1 1 0 1 0 0-2h-32.966a1 1 0 0 0 -1 1z" />
    <path d="m44.613 35.742h-25.226a1 1 0 0 0 0 2h25.226a1 1 0 0 0 0-2z" />
    <path d="m37.517 42.484a1 1 0 0 0 0-2h-11.033a1 1 0 0 0 0 2z" />
    <path d="m41.258 45.226h-18.516a1 1 0 0 0 0 2h18.516a1 1 0 1 0 0-2z" />
    <path
        d="m11.923 13.129a1 1 0 0 0 1-1v-4.29h4.613a1 1 0 0 0 0-2h-5.613a1 1 0 0 0 -1 1v5.29a1 1 0 0 0 1 1z" />
    <path d="m11.923 16.613a1 1 0 0 0 1-1v-.484a1 1 0 0 0 -2 0v.484a1 1 0 0 0 1 1z" />
</svg>