<?xml version="1.0" encoding="UTF-8" standalone="no"?>
<!-- Created with Inkscape (http://www.inkscape.org/) -->

<svg
  version="1.1"
  id="svg303"
  xml:space="preserve"
  width="682.66669"
  height="682.66669"
  viewBox="0 0 682.66669 682.66669"
  xmlns="http://www.w3.org/2000/svg"
  xmlns:svg="http://www.w3.org/2000/svg"><defs
     id="defs307"><clipPath
       clipPathUnits="userSpaceOnUse"
       id="clipPath317"><path
         d="M 0,512 H 512 V 0 H 0 Z"
         id="path315" /></clipPath></defs><g
     id="g309"
     transform="matrix(1.3333333,0,0,-1.3333333,0,682.66667)"><g
       id="g311"><g
         id="g313"
         clip-path="url(#clipPath317)"><g
           id="g319"
           transform="translate(241.5649,386.3316)"><path
             d="m 0,0 c -14.888,23.514 -41.132,39.125 -71.021,39.125 -46.392,0 -84,-37.608 -84,-84 0,-18.476 5.964,-35.558 16.073,-49.427"
             style="fill:none;stroke:currentColor;stroke-width:20;stroke-linecap:round;stroke-linejoin:round;stroke-miterlimit:10;stroke-dasharray:none;stroke-opacity:1"
             id="path321" /></g><g
           id="g323"
           transform="translate(10,341.4566)"><path
             d="M 0,0 H 32.079"
             style="fill:none;stroke:currentColor;stroke-width:20;stroke-linecap:round;stroke-linejoin:round;stroke-miterlimit:10;stroke-dasharray:none;stroke-opacity:1"
             id="path325" /></g><g
           id="g327"
           transform="translate(57.0221,454.9779)"><path
             d="M 0,0 22.683,-22.683"
             style="fill:none;stroke:currentColor;stroke-width:20;stroke-linecap:round;stroke-linejoin:round;stroke-miterlimit:10;stroke-dasharray:none;stroke-opacity:1"
             id="path329" /></g><g
           id="g331"
           transform="translate(170.5434,502)"><path
             d="M 0,0 V -32.079"
             style="fill:none;stroke:currentColor;stroke-width:20;stroke-linecap:round;stroke-linejoin:round;stroke-miterlimit:10;stroke-dasharray:none;stroke-opacity:1"
             id="path333" /></g><g
           id="g335"
           transform="translate(284.0647,454.9779)"><path
             d="M 0,0 -22.683,-22.683"
             style="fill:none;stroke:currentColor;stroke-width:20;stroke-linecap:round;stroke-linejoin:round;stroke-miterlimit:10;stroke-dasharray:none;stroke-opacity:1"
             id="path337" /></g><g
           id="g339"
           transform="translate(317.5776,391.3254)"><path
             d="m 0,0 c -9.662,3.122 -19.969,4.809 -30.671,4.809 -52.744,0 -95.911,-40.977 -99.418,-92.832 -9.874,4.181 -20.732,6.495 -32.13,6.495 -45.539,0 -82.456,-36.917 -82.456,-82.456 0,-45.539 36.917,-82.456 82.456,-82.456 h 264.185 c 45.54,0 82.456,36.917 82.456,82.456 0,45.539 -36.916,82.456 -82.456,82.456 -11.81,0 -23.031,-2.501 -33.188,-6.974 -0.604,9.622 -2.574,18.873 -5.717,27.562"
             style="fill:none;stroke:currentColor;stroke-width:20;stroke-linecap:round;stroke-linejoin:round;stroke-miterlimit:10;stroke-dasharray:none;stroke-opacity:1"
             id="path341" /></g><g
           id="g343"
           transform="translate(179.4281,144.8854)"><path
             d="M 0,0 -44.798,-44.798"
             style="fill:none;stroke:currentColor;stroke-width:20;stroke-linecap:round;stroke-linejoin:round;stroke-miterlimit:10;stroke-dasharray:none;stroke-opacity:1"
             id="path345" /></g><g
           id="g347"
           transform="translate(283.825,144.8854)"><path
             d="M 0,0 -44.798,-44.798"
             style="fill:none;stroke:currentColor;stroke-width:20;stroke-linecap:round;stroke-linejoin:round;stroke-miterlimit:10;stroke-dasharray:none;stroke-opacity:1"
             id="path349" /></g><g
           id="g351"
           transform="translate(388.222,144.8854)"><path
             d="M 0,0 -44.798,-44.798"
             style="fill:none;stroke:currentColor;stroke-width:20;stroke-linecap:round;stroke-linejoin:round;stroke-miterlimit:10;stroke-dasharray:none;stroke-opacity:1"
             id="path353" /></g><g
           id="g355"
           transform="translate(175.9863,54.7982)"><path
             d="M 0,0 -44.798,-44.798"
             style="fill:none;stroke:currentColor;stroke-width:20;stroke-linecap:round;stroke-linejoin:round;stroke-miterlimit:10;stroke-dasharray:none;stroke-opacity:1"
             id="path357" /></g><g
           id="g359"
           transform="translate(280.3833,54.7982)"><path
             d="M 0,0 -44.798,-44.798"
             style="fill:none;stroke:currentColor;stroke-width:20;stroke-linecap:round;stroke-linejoin:round;stroke-miterlimit:10;stroke-dasharray:none;stroke-opacity:1"
             id="path361" /></g><g
           id="g363"
           transform="translate(384.7803,54.7982)"><path
             d="M 0,0 -44.798,-44.798"
             style="fill:none;stroke:currentColor;stroke-width:20;stroke-linecap:round;stroke-linejoin:round;stroke-miterlimit:10;stroke-dasharray:none;stroke-opacity:1"
             id="path365" /></g><g
           id="g367"
           transform="translate(356.1462,368.1393)"><path
             d="M 0,0 V 0"
             style="fill:none;stroke:currentColor;stroke-width:20;stroke-linecap:round;stroke-linejoin:round;stroke-miterlimit:10;stroke-dasharray:none;stroke-opacity:1"
             id="path369" /></g></g></g></g></svg>