<?xml version="1.0" encoding="UTF-8" standalone="no"?>
<!-- Created with Inkscape (http://www.inkscape.org/) -->

<svg
  version="1.1"
  id="svg3054"
  xml:space="preserve"
  width="682.66669"
  height="682.66669"
  viewBox="0 0 682.66669 682.66669"
  xmlns="http://www.w3.org/2000/svg"
  xmlns:svg="http://www.w3.org/2000/svg"><defs
     id="defs3058"><clipPath
       clipPathUnits="userSpaceOnUse"
       id="clipPath3068"><path
         d="M 0,512 H 512 V 0 H 0 Z"
         id="path3066" /></clipPath></defs><g
     id="g3060"
     transform="matrix(1.3333333,0,0,-1.3333333,0,682.66667)"><g
       id="g3062"><g
         id="g3064"
         clip-path="url(#clipPath3068)"><g
           id="g3070"
           transform="translate(253.0923,148.9082)"><path
             d="m 0,0 c -9.19,-6.127 -21.607,-3.644 -27.734,5.547 -6.127,9.19 -3.643,21.607 5.547,27.734 l 120,80 c 7.052,4.7 16.002,4.332 22.555,-0.245 L 240,33.281 C 249.19,27.154 251.674,14.737 245.547,5.547 239.42,-3.644 227.003,-6.127 217.813,0 L 108.907,72.604 Z"
             style="fill:none;stroke:currentColor;stroke-width:20;stroke-linecap:round;stroke-linejoin:round;stroke-miterlimit:22.926;stroke-dasharray:none;stroke-opacity:1"
             id="path3072" /></g><g
           id="g3074"
           transform="translate(253.0923,10.001)"><path
             d="M 0,0 V 138.907 M 227.813,0 H -10 M 217.813,138.907 V 0"
             style="fill:none;stroke:currentColor;stroke-width:20;stroke-linecap:round;stroke-linejoin:round;stroke-miterlimit:22.926;stroke-dasharray:none;stroke-opacity:1"
             id="path3076" /></g><g
           id="g3078"
           transform="translate(391.999,10.001)"><path
             d="M 0,0 V 90 H -60.001 V 0"
             style="fill:none;stroke:currentColor;stroke-width:20;stroke-linecap:round;stroke-linejoin:round;stroke-miterlimit:22.926;stroke-dasharray:none;stroke-opacity:1"
             id="path3080" /></g><g
           id="g3082"
           transform="translate(361.999,149.46)"><path
             d="M 0,0 V -0.007"
             style="fill:none;stroke:currentColor;stroke-width:20;stroke-linecap:round;stroke-linejoin:round;stroke-miterlimit:22.926;stroke-dasharray:none;stroke-opacity:1"
             id="path3084" /></g><g
           id="g3086"
           transform="translate(112.186,362.6006)"><path
             d="m 0,0 26.721,17.814 c 7.051,4.702 16.002,4.333 22.554,-0.245 l 119.633,-79.755 c 9.19,-6.127 11.674,-18.543 5.547,-27.734 -6.127,-9.19 -18.544,-11.674 -27.734,-5.547 L 37.814,-22.862 -71.092,-95.467 c -9.19,-6.127 -21.607,-3.643 -27.734,5.547 -6.127,9.191 -3.643,21.607 5.547,27.734 l 26.715,17.811"
             style="fill:none;stroke:currentColor;stroke-width:20;stroke-linecap:round;stroke-linejoin:round;stroke-miterlimit:22.926;stroke-dasharray:none;stroke-opacity:1"
             id="path3088" /></g><g
           id="g3090"
           transform="translate(41.0942,156.6807)"><path
             d="M 0,0 V 110.453 M 211.998,-28.454 H 32.533 m 185.28,138.907 V 44.176"
             style="fill:none;stroke:currentColor;stroke-width:20;stroke-linecap:round;stroke-linejoin:round;stroke-miterlimit:22.926;stroke-dasharray:none;stroke-opacity:1"
             id="path3092" /></g><g
           id="g3094"
           transform="translate(180.0005,128.2266)"><path
             d="M 0,0 V 90 H -60 V 0"
             style="fill:none;stroke:currentColor;stroke-width:20;stroke-linecap:round;stroke-linejoin:round;stroke-miterlimit:22.926;stroke-dasharray:none;stroke-opacity:1"
             id="path3096" /></g><g
           id="g3098"
           transform="translate(150.0005,267.6865)"><path
             d="M 0,0 V -0.008"
             style="fill:none;stroke:currentColor;stroke-width:20;stroke-linecap:round;stroke-linejoin:round;stroke-miterlimit:22.926;stroke-dasharray:none;stroke-opacity:1"
             id="path3100" /></g><g
           id="g3102"
           transform="translate(324.1904,480.8311)"><path
             d="m 0,0 26.715,17.811 c 7.052,4.7 16.002,4.332 22.555,-0.246 l 119.632,-79.754 c 9.19,-6.127 11.674,-18.544 5.547,-27.735 -6.127,-9.19 -18.544,-11.674 -27.734,-5.547 L 37.809,-22.867 -71.098,-95.471 c -9.19,-6.127 -21.608,-3.643 -27.734,5.547 -6.127,9.191 -3.644,21.608 5.547,27.735 l 26.721,17.813"
             style="fill:none;stroke:currentColor;stroke-width:20;stroke-linecap:round;stroke-linejoin:round;stroke-miterlimit:22.926;stroke-dasharray:none;stroke-opacity:1"
             id="path3104" /></g><g
           id="g3106"
           transform="translate(253.0923,319.083)"><path
             d="M 0,0 V 66.277 M 74.208,-72.63 H 5.815 m 243.093,0 H 143.605 M 217.813,66.277 V -72.63"
             style="fill:none;stroke:currentColor;stroke-width:20;stroke-linecap:round;stroke-linejoin:round;stroke-miterlimit:22.926;stroke-dasharray:none;stroke-opacity:1"
             id="path3108" /></g><g
           id="g3110"
           transform="translate(391.999,249.585)"><path
             d="M 0,0 V 86.868 H -60.001 V -0.001"
             style="fill:none;stroke:currentColor;stroke-width:20;stroke-linecap:round;stroke-linejoin:round;stroke-miterlimit:22.926;stroke-dasharray:none;stroke-opacity:1"
             id="path3112" /></g><g
           id="g3114"
           transform="translate(361.999,385.9121)"><path
             d="M 0,0 V -0.007"
             style="fill:none;stroke:currentColor;stroke-width:20;stroke-linecap:round;stroke-linejoin:round;stroke-miterlimit:22.926;stroke-dasharray:none;stroke-opacity:1"
             id="path3116" /></g><g
           id="g3118"
           transform="translate(9.999,93.6563)"><path
             d="m 0,0 h 79.251 c 0,11.809 -7.749,21.807 -18.438,25.188 5.166,9.952 3.576,22.5 -4.774,30.85 -8.35,8.351 -20.899,9.941 -30.85,4.775 C 21.807,71.502 11.809,79.251 0,79.251"
             style="fill:none;stroke:currentColor;stroke-width:20;stroke-linecap:round;stroke-linejoin:round;stroke-miterlimit:22.926;stroke-dasharray:none;stroke-opacity:1"
             id="path3120" /></g><g
           id="g3122"
           transform="translate(182.4121,10.001)"><path
             d="m 0,0 c 0,10.531 6.91,19.448 16.444,22.465 -4.608,8.875 -3.189,20.066 4.258,27.513 7.446,7.447 18.638,8.866 27.513,4.257 3.017,9.535 11.934,16.445 22.465,16.445"
             style="fill:none;stroke:currentColor;stroke-width:20;stroke-linecap:round;stroke-linejoin:round;stroke-miterlimit:22.926;stroke-dasharray:none;stroke-opacity:1"
             id="path3124" /></g><g
           id="g3126"
           transform="translate(78.9072,340.4141)"><path
             d="M 0,0 -0.006,-0.004"
             style="fill:none;stroke:currentColor;stroke-width:20;stroke-linecap:round;stroke-linejoin:round;stroke-miterlimit:2.613;stroke-dasharray:none;stroke-opacity:1"
             id="path3128" /></g><g
           id="g3130"
           transform="translate(290.9111,458.6455)"><path
             d="M 0,0 -0.006,-0.004"
             style="fill:none;stroke:currentColor;stroke-width:20;stroke-linecap:round;stroke-linejoin:round;stroke-miterlimit:2.613;stroke-dasharray:none;stroke-opacity:1"
             id="path3132" /></g></g></g></g></svg>