<svg xmlns="http://www.w3.org/2000/svg" xmlns:xlink="http://www.w3.org/1999/xlink" width="500" zoomAndPan="magnify" viewBox="0 0 375 374.999991" height="500" preserveAspectRatio="xMidYMid meet" version="1.2"><defs><clipPath id="ba1306eb43"><path d="M 46.640625 0 L 328.640625 0 L 328.640625 375 L 46.640625 375 Z M 46.640625 0 "/></clipPath><clipPath id="d16d820b5a"><path d="M 176 80.886719 L 198 80.886719 L 198 103 L 176 103 Z M 176 80.886719 "/></clipPath><clipPath id="1303df2d75"><path d="M 174 148 L 201 148 L 201 183.636719 L 174 183.636719 Z M 174 148 "/></clipPath><clipPath id="9b19caca6d"><path d="M 149.082031 131 L 225.582031 131 L 225.582031 159 L 149.082031 159 Z M 149.082031 131 "/></clipPath></defs><g id="7370fab3a0"><g clip-rule="nonzero" clip-path="url(#ba1306eb43)"><path style=" stroke:none;fill-rule:nonzero;fill:#04364a;fill-opacity:1;" d="M 187.492188 202.191406 C 149.355469 202.191406 118.421875 171.265625 118.421875 133.117188 C 118.421875 94.980469 149.355469 64.054688 187.492188 64.054688 C 225.625 64.054688 256.558594 94.980469 256.558594 133.117188 C 256.558594 171.265625 225.625 202.191406 187.492188 202.191406 Z M 187.492188 -0.078125 C 109.839844 -0.078125 46.878906 62.855469 46.878906 140.527344 C 46.878906 218.199219 187.492188 374.886719 187.492188 374.886719 C 187.492188 374.886719 328.097656 218.199219 328.097656 140.527344 C 328.097656 62.855469 265.140625 -0.078125 187.492188 -0.078125 "/></g><g clip-rule="nonzero" clip-path="url(#d16d820b5a)"><path style=" stroke:none;fill-rule:nonzero;fill:#0ac2c2;fill-opacity:1;" d="M 187.3125 102.316406 C 193.171875 102.316406 197.921875 97.539062 197.921875 91.644531 C 197.921875 85.75 193.171875 80.96875 187.3125 80.96875 C 181.453125 80.96875 176.703125 85.75 176.703125 91.644531 C 176.703125 97.539062 181.453125 102.316406 187.3125 102.316406 Z M 187.3125 102.316406 "/></g><path style=" stroke:none;fill-rule:nonzero;fill:#0ac2c2;fill-opacity:1;" d="M 200.511719 115.691406 L 200.511719 143.179688 C 183.75 147.4375 174.152344 158.347656 174.152344 158.347656 L 174.152344 115.691406 C 174.152344 110.679688 178.191406 106.617188 183.171875 106.617188 L 191.492188 106.617188 C 196.472656 106.617188 200.511719 110.679688 200.511719 115.691406 Z M 200.511719 115.691406 "/><g clip-rule="nonzero" clip-path="url(#1303df2d75)"><path style=" stroke:none;fill-rule:nonzero;fill:#04364a;fill-opacity:1;" d="M 200.511719 148.523438 L 200.511719 174.480469 C 200.511719 179.492188 196.472656 183.558594 191.492188 183.558594 L 183.171875 183.558594 C 178.191406 183.558594 174.152344 179.492188 174.152344 174.480469 L 174.152344 166.003906 C 174.152344 166.003906 176.78125 162.410156 181.757812 158.347656 C 186.203125 154.710938 192.523438 150.695312 200.511719 148.523438 Z M 200.511719 148.523438 "/></g><g clip-rule="nonzero" clip-path="url(#9b19caca6d)"><path style=" stroke:none;fill-rule:nonzero;fill:#0ac2c2;fill-opacity:1;" d="M 225.574219 140.902344 L 225.574219 142.707031 C 216.050781 140.765625 207.636719 141.375 200.511719 143.179688 C 183.75 147.4375 174.152344 158.347656 174.152344 158.347656 L 158.113281 158.347656 C 153.132812 158.347656 149.09375 154.285156 149.09375 149.269531 L 149.09375 140.902344 C 149.09375 135.890625 153.128906 131.828125 158.113281 131.828125 L 216.550781 131.828125 C 221.535156 131.828125 225.574219 135.890625 225.574219 140.902344 Z M 225.574219 140.902344 "/></g></g></svg>