<svg xmlns="http://www.w3.org/2000/svg" xmlns:xlink="http://www.w3.org/1999/xlink" width="500" zoomAndPan="magnify" viewBox="0 0 375 374.999991" height="500" preserveAspectRatio="xMidYMid meet" version="1.2"><defs><clipPath id="61b1df6a3c"><path d="M 46.640625 0 L 328.640625 0 L 328.640625 375 L 46.640625 375 Z M 46.640625 0 "/></clipPath><clipPath id="164d7f42cc"><path d="M 176 79.1875 L 198 79.1875 L 198 101 L 176 101 Z M 176 79.1875 "/></clipPath><clipPath id="9e79a6231f"><path d="M 174 146 L 201 146 L 201 181.9375 L 174 181.9375 Z M 174 146 "/></clipPath><clipPath id="732917e75d"><path d="M 149.082031 130 L 225.582031 130 L 225.582031 157 L 149.082031 157 Z M 149.082031 130 "/></clipPath></defs><g id="30ee7de190"><g clip-rule="nonzero" clip-path="url(#61b1df6a3c)"><path style=" stroke:none;fill-rule:nonzero;fill:#0ac2c2;fill-opacity:1;" d="M 187.492188 202.191406 C 149.355469 202.191406 118.421875 171.265625 118.421875 133.117188 C 118.421875 94.980469 149.355469 64.054688 187.492188 64.054688 C 225.625 64.054688 256.558594 94.980469 256.558594 133.117188 C 256.558594 171.265625 225.625 202.191406 187.492188 202.191406 Z M 187.492188 -0.078125 C 109.839844 -0.078125 46.878906 62.855469 46.878906 140.527344 C 46.878906 218.199219 187.492188 374.886719 187.492188 374.886719 C 187.492188 374.886719 328.097656 218.199219 328.097656 140.527344 C 328.097656 62.855469 265.140625 -0.078125 187.492188 -0.078125 "/></g><g clip-rule="nonzero" clip-path="url(#164d7f42cc)"><path style=" stroke:none;fill-rule:nonzero;fill:#0ac2c2;fill-opacity:1;" d="M 187.3125 100.613281 C 193.171875 100.613281 197.921875 95.835938 197.921875 89.941406 C 197.921875 84.046875 193.171875 79.269531 187.3125 79.269531 C 181.453125 79.269531 176.703125 84.046875 176.703125 89.941406 C 176.703125 95.835938 181.453125 100.613281 187.3125 100.613281 Z M 187.3125 100.613281 "/></g><path style=" stroke:none;fill-rule:nonzero;fill:#0ac2c2;fill-opacity:1;" d="M 200.511719 113.992188 L 200.511719 141.480469 C 183.75 145.734375 174.152344 156.644531 174.152344 156.644531 L 174.152344 113.992188 C 174.152344 108.980469 178.191406 104.914062 183.171875 104.914062 L 191.492188 104.914062 C 196.472656 104.914062 200.511719 108.976562 200.511719 113.992188 Z M 200.511719 113.992188 "/><g clip-rule="nonzero" clip-path="url(#9e79a6231f)"><path style=" stroke:none;fill-rule:nonzero;fill:#04364a;fill-opacity:1;" d="M 200.511719 146.824219 L 200.511719 172.78125 C 200.511719 177.792969 196.472656 181.855469 191.492188 181.855469 L 183.171875 181.855469 C 178.191406 181.855469 174.152344 177.792969 174.152344 172.78125 L 174.152344 164.300781 C 174.152344 164.300781 176.78125 160.710938 181.757812 156.644531 C 186.203125 153.011719 192.523438 148.996094 200.511719 146.820312 Z M 200.511719 146.824219 "/></g><g clip-rule="nonzero" clip-path="url(#732917e75d)"><path style=" stroke:none;fill-rule:nonzero;fill:#0ac2c2;fill-opacity:1;" d="M 225.574219 139.199219 L 225.574219 141.007812 C 216.050781 139.0625 207.636719 139.671875 200.511719 141.480469 C 183.75 145.734375 174.152344 156.644531 174.152344 156.644531 L 158.113281 156.644531 C 153.132812 156.644531 149.09375 152.582031 149.09375 147.570312 L 149.09375 139.199219 C 149.09375 134.1875 153.128906 130.125 158.113281 130.125 L 216.550781 130.125 C 221.535156 130.125 225.574219 134.1875 225.574219 139.199219 Z M 225.574219 139.199219 "/></g></g></svg>