<svg width="240" height="240" viewBox="0 0 240 240" xmlns="http://www.w3.org/2000/svg">
    <rect width="240" height="240" fill="none" />
    <g fill="none" stroke="#e2e8f0" stroke-width="2" opacity="0.6">
        <path d="M120 40c10 8 16 18 16 30-12 0-22-6-30-16 0-12 6-22 14-14z" />
        <path d="M120 40c-10 8-16 18-16 30 12 0 22-6 30-16 0-12-6-22-14-14z" />
        <path d="M120 200c10-8 16-18 16-30-12 0-22 6-30 16 0 12 6 22 14 14z" />
        <path d="M120 200c-10-8-16-18-16-30 12 0 22 6 30 16 0 12-6 22-14 14z" />
        <circle cx="120" cy="120" r="18" />
        <path d="M40 120c8-10 18-16 30-16 0 12-6 22-16 30-12 0-22-6-14-14z" />
        <path d="M40 120c8 10 18 16 30 16 0-12-6-22-16-30-12 0-22 6-14 14z" />
        <path d="M200 120c-8-10-18-16-30-16 0 12 6 22 16 30 12 0 22-6 14-14z" />
        <path d="M200 120c-8 10-18 16-30 16 0-12 6-22 16-30 12 0 22 6 14 14z" />
    </g>
    <g fill="none" stroke="#fde68a" stroke-width="1.5" opacity="0.35">
        <circle cx="60" cy="60" r="14" />
        <circle cx="180" cy="60" r="10" />
        <circle cx="60" cy="180" r="10" />
        <circle cx="180" cy="180" r="14" />
    </g>
</svg>