<svg width="791" height="1056" viewBox="0 0 791 1056" fill="none" xmlns="http://www.w3.org/2000/svg">
<path d="M395.28 220.2C455.866 220.2 504.98 171.085 504.98 110.5C504.98 49.9142 455.866 0.799805 395.28 0.799805C334.694 0.799805 285.58 49.9142 285.58 110.5C285.58 171.085 334.694 220.2 395.28 220.2Z" fill="#0AC2C2"/>
<path d="M531.79 357.68V640.21C358.46 683.95 259.21 796.09 259.21 796.09V357.68C259.21 306.17 300.97 264.4 352.49 264.4H438.51C490.03 264.4 531.79 306.16 531.79 357.68Z" fill="#0AC2C2"/>
<path d="M531.79 695.13V961.92C531.79 1013.43 490.03 1055.2 438.51 1055.2H352.49C300.97 1055.2 259.21 1013.44 259.21 961.92V874.77C259.21 874.77 286.41 837.87 337.87 796.08C383.84 758.73 449.19 717.46 531.79 695.12V695.13Z" fill="#04364A"/>
<path d="M790.9 616.79V635.35C692.45 615.39 605.43 621.63 531.79 640.21C358.46 683.95 259.21 796.09 259.21 796.09H93.38C41.87 796.09 0.100006 754.33 0.100006 702.81V616.79C0.100006 565.27 41.86 523.51 93.38 523.51H697.63C749.14 523.51 790.91 565.27 790.91 616.79H790.9Z" fill="#0AC2C2"/>
</svg>
