<svg width="1214" height="272" viewBox="0 0 1214 272" fill="none" xmlns="http://www.w3.org/2000/svg">
<path d="M637.26 183.51C632.87 183.51 628.85 184.55 625.2 186.62C621.55 188.69 617.53 192.29 613.14 197.4C606.32 205.44 599.37 211.11 592.31 214.39C585.24 217.68 576.83 219.32 567.09 219.32C557.35 219.32 548.51 217.13 540.59 212.74C532.67 208.35 526.52 202.14 522.13 194.1C517.74 186.06 515.55 176.8 515.55 166.32V106.38C515.55 95.9101 517.74 86.6401 522.13 78.6001C526.52 70.5601 532.67 64.3501 540.59 59.9601C548.5 55.5701 557.34 53.3801 567.09 53.3801C575.86 53.3801 583.41 54.9001 589.75 57.9501C596.08 61.0001 602.66 66.5401 609.49 74.5801C614.12 79.7001 618.2 83.2301 621.73 85.1801C625.26 87.1301 629.22 88.1001 633.61 88.1001C642.14 88.1001 648.96 85.6001 654.08 80.6101C659.2 75.6201 661.75 69.2201 661.75 61.4201C661.75 55.5701 660.16 49.7901 657 44.0601C653.83 38.3401 649.2 32.7901 643.11 27.4301C634.09 19.6301 622.88 13.3001 609.49 8.43011C596.09 3.56011 581.95 1.12012 567.09 1.12012C545.4 1.12012 526.16 5.63014 509.34 14.6401C492.53 23.6601 479.49 36.2001 470.23 52.2801C460.97 68.3601 456.34 86.3901 456.34 106.37V166.31C456.34 186.29 460.97 204.32 470.23 220.4C479.49 236.48 492.52 249.03 509.34 258.04C526.15 267.05 545.4 271.56 567.09 271.56C582.93 271.56 597.36 269.3 610.4 264.8C623.43 260.29 634.46 254.26 643.48 246.71C650.54 240.86 655.96 234.71 659.74 228.25C663.51 221.8 665.4 215.77 665.4 210.16C665.4 202.36 662.84 195.97 657.72 190.97C652.6 185.98 645.78 183.48 637.25 183.48L637.26 183.51Z" fill="#04364A"/>
<path d="M815.43 84.4706C802.39 77.8906 787.59 74.6006 771.02 74.6006C761.52 74.6006 752.44 75.7606 743.79 78.0706C735.14 80.3906 727.53 83.8606 720.95 88.4906C714.37 92.8806 709.13 97.6906 705.23 102.931C701.33 108.171 699.38 113.471 699.38 118.831C699.38 125.171 701.45 130.221 705.59 134.001C709.73 137.781 715.09 139.671 721.67 139.671C726.3 139.671 730.32 138.881 733.73 137.291C737.14 135.711 740.91 132.971 745.06 129.071C749.69 124.441 753.83 121.341 757.49 119.751C761.14 118.171 765.65 117.371 771.01 117.371C777.59 117.371 783.25 118.711 788.01 121.391C792.76 124.071 796.35 127.911 798.79 132.901C801.22 137.901 802.44 143.441 802.44 149.531V152.451H767.35C750.29 152.451 735.74 155.131 723.68 160.491C711.62 165.851 702.6 173.161 696.64 182.421C690.67 191.681 687.69 202.281 687.69 214.221C687.69 224.211 690.37 233.471 695.73 242.001C701.09 250.531 708.46 257.291 717.84 262.281C727.22 267.271 737.88 269.771 749.82 269.771C759.81 269.771 769.37 267.701 778.51 263.561C787.65 259.421 794.89 253.941 800.26 247.111H804.2C804.74 249.261 805.61 251.391 806.84 253.511C809.03 257.291 812.08 260.331 815.98 262.651C819.87 264.961 824.39 266.121 829.5 266.121C837.3 266.121 843.69 263.741 848.69 258.991C853.68 254.241 856.18 248.331 856.18 241.261V149.161C856.18 135.521 852.64 122.971 845.58 111.521C838.51 100.071 828.46 91.0506 815.43 84.4806V84.4706ZM802.46 210.191C798.07 215.801 792.35 220.301 785.28 223.711C778.21 227.131 771.27 228.831 764.45 228.831C756.89 228.831 751.11 227.131 747.09 223.711C743.07 220.301 741.06 215.671 741.06 209.821C741.06 203.491 743.44 198.311 748.19 194.291C752.94 190.271 759.34 188.261 767.38 188.261H802.47V210.191H802.46Z" fill="#04364A"/>
<path d="M1004.2 76.4297H990.31C982.75 76.4297 975.57 78.4397 968.75 82.4597C961.93 86.4797 956.81 91.1697 953.4 96.5297H949.77C948.73 92.5897 946.53 88.9297 943.16 85.5697C938.28 80.6997 932.07 78.2597 924.52 78.2597C916.97 78.2597 910.27 80.6397 905.15 85.3897C900.03 90.1397 897.47 96.0497 897.47 103.12V241.27C897.47 245.9 898.62 250.11 900.94 253.88C903.25 257.66 906.48 260.64 910.62 262.83C914.76 265.02 919.39 266.12 924.51 266.12C932.06 266.12 938.4 263.69 943.51 258.81C948.63 253.94 951.19 248.09 951.19 241.27V152.46C951.19 146.37 952.53 140.95 955.21 136.2C957.89 131.45 961.73 127.74 966.72 125.05C971.71 122.37 977.38 121.03 983.71 121.03H1004.18C1011.24 121.03 1016.85 118.9 1020.99 114.63C1025.13 110.37 1027.2 105.07 1027.2 98.7297C1027.2 92.3897 1025.06 86.7897 1020.8 82.6497C1016.53 78.5097 1010.99 76.4397 1004.17 76.4397L1004.2 76.4297Z" fill="#04364A"/>
<path d="M1203.01 113.341C1195.7 101.411 1185.4 91.9606 1172.13 85.0206C1158.85 78.0806 1143.93 74.6006 1127.36 74.6006C1110.79 74.6006 1095.56 78.0706 1082.41 85.0206C1069.25 91.9606 1058.96 101.411 1051.53 113.341C1044.1 125.281 1040.38 138.441 1040.38 152.811V191.551C1040.38 205.681 1044.09 218.721 1051.53 230.661C1058.96 242.601 1069.31 252.101 1082.59 259.171C1095.87 266.231 1111.04 269.771 1128.09 269.771C1142.22 269.771 1154.53 268.361 1165 265.571C1175.47 262.771 1184.13 258.931 1190.95 254.061C1195.82 250.401 1199.54 246.381 1202.1 242.001C1204.66 237.611 1205.94 233.471 1205.94 229.571C1205.94 224.451 1204.05 219.951 1200.28 216.051C1196.5 212.161 1191.56 210.201 1185.48 210.201C1182.06 210.201 1178.9 210.751 1175.98 211.841C1173.06 212.941 1169.4 214.831 1165.01 217.511C1159.16 221.161 1153.43 223.791 1147.83 225.371C1142.22 226.961 1136.01 227.751 1129.19 227.751C1121.88 227.751 1115.6 226.291 1110.37 223.361C1105.13 220.441 1101.11 216.361 1098.31 211.121C1095.51 205.881 1094.11 199.851 1094.11 193.031V190.111H1187.31C1195.1 190.111 1201.5 187.681 1206.5 182.801C1211.49 177.931 1213.99 172.081 1213.99 165.261V152.831C1213.99 138.461 1210.33 125.301 1203.03 113.361L1203.01 113.341ZM1098.3 134.181C1101.1 129.061 1105.06 125.041 1110.18 122.121C1115.3 119.201 1121.02 117.731 1127.36 117.731C1133.7 117.731 1139.42 119.191 1144.54 122.121C1149.66 125.041 1153.61 129.061 1156.42 134.181C1159.22 139.301 1160.62 145.271 1160.62 152.091V152.461H1094.1V151.731C1094.1 145.151 1095.5 139.301 1098.3 134.191V134.181Z" fill="#04364A"/>
<path d="M328.57 56.8301C344.15 56.8301 356.78 44.2001 356.78 28.6201C356.78 13.0402 344.15 0.410156 328.57 0.410156C312.99 0.410156 300.36 13.0402 300.36 28.6201C300.36 44.2001 312.99 56.8301 328.57 56.8301Z" fill="white"/>
<path d="M363.69 92.1902V164.86C319.11 176.11 293.58 204.95 293.58 204.95V92.1902C293.58 78.9402 304.32 68.2002 317.57 68.2002H339.69C352.94 68.2002 363.68 78.9402 363.68 92.1902H363.69Z" fill="white"/>
<path d="M363.69 178.99V247.61C363.69 260.86 352.95 271.6 339.7 271.6H317.58C304.33 271.6 293.59 260.86 293.59 247.61V225.2C293.59 225.2 300.59 215.71 313.82 204.96C325.64 195.35 342.45 184.74 363.7 178.99H363.69Z" fill="#04364A"/>
<path d="M430.33 158.841V163.611C405.01 158.481 382.63 160.081 363.69 164.861C319.11 176.111 293.58 204.951 293.58 204.951H250.93C237.68 204.951 226.94 194.211 226.94 180.961V158.841C226.94 145.591 237.68 134.851 250.93 134.851H406.34C419.59 134.851 430.33 145.591 430.33 158.841Z" fill="white"/>
<path d="M209.08 18.48C206.4 14.34 202.8 11.05 198.3 8.60995C193.79 6.17995 188.98 4.95996 183.86 4.95996C175.57 4.95996 168.63 7.57998 163.03 12.82C157.42 18.06 154.62 24.58 154.62 32.37V111.31H58.5V32.37C58.5 27.25 57.22 22.63 54.66 18.48C52.1 14.34 48.57 11.05 44.06 8.60995C39.55 6.17995 34.61 4.95996 29.26 4.95996C21.22 4.95996 14.33 7.57998 8.60999 12.82C2.87999 18.06 0.019989 24.58 0.019989 32.37V240.69C0.019989 248.49 2.87999 255.01 8.60999 260.24C14.33 265.48 21.22 268.1 29.26 268.1C37.3 268.1 44.48 265.48 50.09 260.24C55.69 255 58.5 248.49 58.5 240.69V163.21H154.62V240.69C154.62 248.49 157.42 255.01 163.03 260.24C168.63 265.48 175.58 268.1 183.86 268.1C192.14 268.1 199.08 265.48 204.69 260.24C210.29 255 213.1 248.49 213.1 240.69V32.37C213.1 27.25 211.76 22.63 209.08 18.48Z" fill="white"/>
</svg>
